<?xml version="1.0" encoding="utf-8"?>
<!-- Generator: Adobe Illustrator 24.1.1, SVG Export Plug-In . SVG Version: 6.00 Build 0)  -->
<svg version="1.1" id="Layer_1" xmlns="http://www.w3.org/2000/svg" xmlns:xlink="http://www.w3.org/1999/xlink" x="0px" y="0px"
	 viewBox="0 0 512 512" style="enable-background:new 0 0 512 512;" xml:space="preserve">
<style type="text/css">
	.st0{fill:#343434;}
</style>
<g>
	<path class="st0" d="M347,300L347,300C347,300,347,300,347,300l-272,0c-6.7,0-12.6-4.4-14.4-10.9l-60-210C-0.7,74.6,0.2,69.7,3,66
		c2.8-3.8,7.3-6,12-6h366.6l10.7-48.3C393.9,4.9,400,0,407,0h90c8.3,0,15,6.7,15,15s-6.7,15-15,15h-78
		c-1.9,8.6-51.3,230.9-54.2,243.7c15.9,6.9,27.1,22.8,27.1,41.3c0,24.8-20.2,45-45,45H75c-8.3,0-15-6.7-15-15s6.7-15,15-15h272
		c8.3,0,15-6.7,15-15C362,306.7,355.3,300,347,300z M34.9,90l51.4,180H335l40-180H34.9z"/>
	<path class="st0" d="M362,405c0,24.8-20.2,45-45,45c-24.8,0-45-20.2-45-45s20.2-45,45-45C341.8,360,362,380.2,362,405z M317,390
		c-8.3,0-15,6.7-15,15s6.7,15,15,15c8.3,0,15-6.7,15-15S325.3,390,317,390z"/>
	<path class="st0" d="M150,405c0,24.8-20.2,45-45,45s-45-20.2-45-45s20.2-45,45-45S150,380.2,150,405z M105,390c-8.3,0-15,6.7-15,15
		s6.7,15,15,15s15-6.7,15-15S113.3,390,105,390z"/>
</g>
</svg>
