<?xml version="1.0" encoding="utf-8"?>
<!-- Generator: Adobe Illustrator 16.0.0, SVG Export Plug-In . SVG Version: 6.00 Build 0)  -->
<!DOCTYPE svg PUBLIC "-//W3C//DTD SVG 1.1//EN" "http://www.w3.org/Graphics/SVG/1.1/DTD/svg11.dtd">
<svg version="1.1" id="Capa_1" xmlns="http://www.w3.org/2000/svg" xmlns:xlink="http://www.w3.org/1999/xlink" x="0px" y="0px"
	 width="320px" height="480px" viewBox="0 0 320 480" enable-background="new 0 0 320 480" xml:space="preserve">
<g>
	<path fill="none" stroke="#000000" stroke-width="8" stroke-miterlimit="10" d="M302.781,196.5H239.5
		c4.54-3.1,8.44-6.18,11.16-8.939c16.12-16.221,16.12-42.621,0-58.84c-15.66-15.76-42.98-15.78-58.66,0
		c-8.66,8.7-31.68,44.12-28.5,67.78h-1.44c3.16-23.66-19.84-59.08-28.5-67.78c-15.68-15.78-43-15.76-58.659,0
		c-16.12,16.219-16.12,42.62-0.021,58.84c2.74,2.76,6.641,5.84,11.18,8.939H22.781c-11.021,0-20,8.98-20,20v50
		c0,5.521,4.479,10,10,10h10v120c0,11.021,8.979,20,20,20h240c11.02,0,20-8.979,20-20v-120h10c5.52,0,10-4.479,10-10v-50
		C322.781,205.48,313.8,196.5,302.781,196.5z"/>
	<line fill="none" stroke="#000000" stroke-width="8" stroke-miterlimit="10" x1="22.781" y1="276.5" x2="302.781" y2="276.5"/>
	<line fill="none" stroke="#000000" stroke-width="8" stroke-miterlimit="10" x1="86.06" y1="196.5" x2="239.5" y2="196.5"/>
	<line fill="none" stroke="#000000" stroke-width="8" stroke-miterlimit="10" x1="162.78" y1="196.5" x2="162.78" y2="416.5"/>
</g>
</svg>
