<?xml version="1.0" encoding="utf-8"?>
<!-- Generator: Adobe Illustrator 16.0.0, SVG Export Plug-In . SVG Version: 6.00 Build 0)  -->
<!DOCTYPE svg PUBLIC "-//W3C//DTD SVG 1.1//EN" "http://www.w3.org/Graphics/SVG/1.1/DTD/svg11.dtd">
<svg version="1.1" id="Layer_1" xmlns="http://www.w3.org/2000/svg" xmlns:xlink="http://www.w3.org/1999/xlink" x="0px" y="0px"
	 width="100px" height="100px" viewBox="0 0 100 100" enable-background="new 0 0 100 100" xml:space="preserve">
<circle fill="#D21683" cx="50.355" cy="49.546" r="41.708"/>
<path fill="#FFFFFF" d="M33.116,27.222h35.498c3.371,0,6.129,2.758,6.129,6.13V68.85c0,3.372-2.758,6.127-6.129,6.127H33.116
	c-3.372,0-6.132-2.755-6.132-6.127V33.352C26.984,29.979,29.744,27.222,33.116,27.222z M61.776,32.525
	c-1.185,0-2.15,0.971-2.15,2.153v5.144c0,1.185,0.966,2.151,2.15,2.151h5.396c1.182,0,2.15-0.967,2.15-2.151v-5.144
	c0-1.183-0.969-2.153-2.15-2.153H61.776z M69.345,47.417h-4.203c0.398,1.302,0.615,2.672,0.615,4.1
	c0,7.942-6.649,14.383-14.848,14.383c-8.197,0-14.847-6.44-14.847-14.383c0-1.428,0.218-2.798,0.614-4.1h-4.383v20.175
	c0,1.045,0.853,1.894,1.896,1.894h33.257c1.046,0,1.897-0.849,1.897-1.894V47.417z M50.909,41.703c-5.295,0-9.59,4.158-9.59,9.294
	c0,5.131,4.295,9.293,9.59,9.293c5.297,0,9.592-4.162,9.592-9.293C60.501,45.861,56.206,41.703,50.909,41.703z"/>
</svg>
