<?xml version="1.0" encoding="utf-8"?>
<!-- Generator: Adobe Illustrator 16.0.0, SVG Export Plug-In . SVG Version: 6.00 Build 0)  -->
<!DOCTYPE svg PUBLIC "-//W3C//DTD SVG 1.1//EN" "http://www.w3.org/Graphics/SVG/1.1/DTD/svg11.dtd">
<svg version="1.1" id="Layer_1" xmlns="http://www.w3.org/2000/svg" xmlns:xlink="http://www.w3.org/1999/xlink" x="0px" y="0px"
	 width="100px" height="100px" viewBox="0 0 100 100" enable-background="new 0 0 100 100" xml:space="preserve">
<g>
	<circle fill="#60CBF0" cx="50.355" cy="49.546" r="41.708"/>
	<path fill="#FFFFFF" d="M79.39,35.345c-1.93,0.857-4.004,1.436-6.179,1.694c2.222-1.331,3.929-3.438,4.731-5.951
		c-2.076,1.233-4.379,2.129-6.83,2.612c-1.964-2.092-4.761-3.398-7.854-3.398c-5.941,0-10.758,4.817-10.758,10.758
		c0,0.844,0.094,1.664,0.277,2.451c-8.941-0.447-16.866-4.73-22.174-11.241c-0.924,1.591-1.454,3.438-1.454,5.409
		c0,3.732,1.898,7.027,4.783,8.953c-1.762-0.053-3.421-0.541-4.872-1.346v0.136c0,5.212,3.709,9.562,8.629,10.549
		c-0.902,0.245-1.855,0.38-2.834,0.38c-0.691,0-1.367-0.07-2.025-0.195c1.369,4.273,5.342,7.383,10.049,7.472
		c-3.68,2.884-8.316,4.605-13.359,4.605c-0.867,0-1.723-0.052-2.564-0.151c4.76,3.049,10.414,4.832,16.492,4.832
		c19.785,0,30.605-16.39,30.605-30.607c0-0.465-0.012-0.928-0.029-1.393C76.122,39.397,77.944,37.504,79.39,35.345z"/>
</g>
</svg>
