<svg id="Capa_1" enable-background="new 0 0 512 512" height="512" viewBox="0 0 512 512" width="512" xmlns="http://www.w3.org/2000/svg"><g><path d="m112.5 474.5v-32.574l248.213-248.213-35.355-35.355-248.213 248.213-23.624 75.695c3.422 12.803 15.097 22.234 28.979 22.234 16.569 0 30-13.431 30-30z" fill="#ffd185"/><path d="m91.287 453.287v-32.574l248.213-248.213-21.213-21.213-248.213 248.213h-32.574c-16.569 0-30 13.431-30 30s13.431 30 30 30h15v15c0 2.687.358 5.288 1.021 7.766 2.478.662 5.08 1.021 7.766 1.021 16.568 0 30-13.432 30-30z" fill="#ffe8c2"/><path d="m456.173 55.827-138.119 158.183c51.936 45.1 83.335 20.378 138.119 75.162 64.436-64.436 64.436-168.908 0-233.345z" fill="#ff3a2f"/><path d="m349.532 182.532-185.422 207.784 215.964-57.867c27.882-7.045 54.285-21.463 76.098-43.276z" fill="#ff5a35"/><path d="m222.827 55.827c-21.813 21.813-36.231 48.215-43.276 76.098l-57.867 215.965h42.426v42.426l198.398-75.434c24.911-9.12 49.342-24.323 70.757-45.273z" fill="#ff7a3c"/><path d="m433.265 269.609c.564-.552 1.134-1.09 1.694-1.649 64.436-64.436 73.934-159.411 21.213-212.132-64.436-64.436-168.909-64.436-233.345 0 58.335 58.335 26.517 90.157 84.853 148.492 50.237 50.237 80.81 33.619 125.585 65.289z" fill="#ff5a35"/><circle cx="435.04" cy="76.96" r="7.5"/><circle cx="435.04" cy="119.386" r="7.5"/><circle cx="302.458" cy="92.87" r="7.5"/><circle cx="206.617" cy="305.383" r="7.5"/><path d="m201.314 257.653c-2.929 2.929-2.929 7.678 0 10.607s7.678 2.929 10.607 0 2.929-7.678 0-10.607-7.678-2.929-10.607 0z"/><path d="m461.557 50.443c-67.258-67.258-176.694-67.258-243.952 0-2.929 2.929-2.929 7.678 0 10.607 27.815 27.815 33.994 48.821 40.535 71.059 6.784 23.064 13.798 46.913 44.318 77.433 30.521 30.521 54.37 37.535 77.433 44.318 20.74 6.1 40.406 11.884 65.526 35.2-19.093 17.33-42.141 29.73-67.099 36.036-.035.009-.069.018-.104.027l-206.523 55.337v-32.653c-.001-4.141-3.359-7.499-7.5-7.5h-32.653l55.337-206.523c.009-.035.018-.069.027-.104 4.575-18.108 12.278-35.101 22.895-50.508 2.351-3.411 1.491-8.087-1.92-10.431-3.411-2.35-8.081-1.491-10.431 1.92-11.622 16.865-20.058 35.467-25.073 55.291l-57.334 213.973-48.072 48.075h-29.467c-20.678 0-37.5 16.822-37.5 37.5s16.822 37.5 37.5 37.5h7.5v7.5c0 20.678 16.822 37.5 37.5 37.5s37.5-16.822 37.5-37.5v-29.467l48.074-48.074 213.974-57.334c30.021-7.596 57.514-23.235 79.509-45.23 67.258-67.258 67.257-176.694 0-243.952zm-354.36 386.18c-1.407 1.407-2.197 3.314-2.197 5.304v32.573c0 12.406-10.093 22.5-22.5 22.5s-22.5-10.094-22.5-22.5v-15c0-4.143-3.358-7.5-7.5-7.5h-15c-12.407 0-22.5-10.094-22.5-22.5s10.093-22.5 22.5-22.5h32.574c1.989 0 3.897-.79 5.303-2.196l49.494-49.495h31.82v31.821zm348.844-158.166c-27.914-26.045-50.262-32.617-71.918-38.986-22.238-6.541-43.243-12.719-71.059-40.535-27.815-27.815-33.994-48.821-40.535-71.059-6.37-21.656-12.942-44.004-38.986-71.918 61.73-56.268 157.745-54.571 217.407 5.091s61.36 155.677 5.091 217.407z"/></g></svg>