<?xml version="1.0" encoding="iso-8859-1"?>
<!-- Generator: Adobe Illustrator 19.0.0, SVG Export Plug-In . SVG Version: 6.00 Build 0)  -->
<svg version="1.1" id="Capa_1" xmlns="http://www.w3.org/2000/svg" xmlns:xlink="http://www.w3.org/1999/xlink" x="0px" y="0px"
	 viewBox="0 0 496 496" style="enable-background:new 0 0 496 496;" xml:space="preserve">
<g>
	<g>
		<path d="M495.352,484.848L353.488,153.824l20.168-20.168l-11.312-11.312l-240,240l11.312,11.312l20.168-20.168l331.024,141.864
			c1.016,0.44,2.088,0.648,3.152,0.648c2.08,0,4.128-0.816,5.656-2.344C495.968,491.344,496.64,487.856,495.352,484.848z
			 M184,349.008l-17.992-7.712L184,323.312V349.008z M240,373.008l-40-17.144v-48.56l40-40V373.008z M296,397.008l-40-17.144
			V251.312l40-40V397.008z M352,421.008l-40-17.144V400h40V421.008z M352,384h-40v-16h40V384z M352,352h-40v-16h40V352z M352,320
			h-40v-16h40V320z M352,288h-40v-16h40V288z M352,256h-40v-16h40V256z M352,224h-40v-16h40V224z M352,192h-36.688l25.992-25.992
			L352.44,192H352z M408,445.008l-40-17.144v-199.56l40,93.336V445.008z M424,451.872v-92.896l48.768,113.792L424,451.872z"/>
	</g>
</g>
<g>
	<g>
		<path d="M137.448,299.752c-18.336-27.496-45.92-47.632-77.688-56.712c-7.056-2.016-14.352-3.04-21.704-3.04
			C17.072,240,0,257.072,0,278.056c0,8.544,3.328,16.584,9.376,22.632c12.48,12.48,32.776,12.48,45.248,0l7.032-7.032
			l-11.312-11.312l-7.032,7.032c-6.24,6.232-16.384,6.232-22.624,0c-3.024-3.024-4.688-7.04-4.688-11.32
			C16,265.896,25.896,256,38.056,256c5.856,0,11.68,0.816,17.304,2.424c28.128,8.032,52.552,25.864,68.776,50.2l5.208,7.816
			l13.312-8.872L137.448,299.752z"/>
	</g>
</g>
<g>
	<g>
		<path d="M308.624,124.136c-24.336-16.224-42.168-40.656-50.2-68.776C256.816,49.736,256,43.92,256,38.056
			C256,25.896,265.896,16,278.056,16c4.272,0,8.296,1.664,11.32,4.688c6.24,6.24,6.24,16.384,0,22.624l-7.032,7.032l11.312,11.312
			l7.032-7.032c12.48-12.48,12.48-32.776,0-45.248C294.648,3.328,286.608,0,278.056,0C257.072,0,240,17.072,240,38.056
			c0,7.344,1.024,14.648,3.04,21.696c9.08,31.776,29.216,59.368,56.712,77.696l7.816,5.208l8.872-13.312L308.624,124.136z"/>
	</g>
</g>
<g>
	<g>
		<path d="M104.6,42.896l-33.28-5.088L56,5.168l-15.32,32.64L7.4,42.896l24.048,24.648l-5.776,35.432L56,86.208l30.328,16.768
			l-5.776-35.432L104.6,42.896z M65.232,73.032L56,67.928l-9.232,5.104l1.776-10.88L40.6,54l10.944-1.672L56,42.832l4.456,9.504
			L71.4,54l-7.944,8.152L65.232,73.032z"/>
	</g>
</g>
<g>
	<g>
		<path d="M196.728,140.424c-17.464-12.768-32.376-28.32-44.32-46.232C141.672,78.088,136,59.352,136,40c0-13.232,10.768-24,24-24
			c8.824,0,16,7.176,16,16s-7.176,16-16,16v16c17.648,0,32-14.352,32-32S177.648,0,160,0c-22.056,0-40,17.944-40,40
			c0,22.52,6.6,44.328,19.096,63.064c12.984,19.48,29.2,36.392,48.096,50.208c1.12,0.84,11.144,8.328,17.752,11.632l7.16-14.312
			C207.608,148.344,199.536,142.528,196.728,140.424z"/>
	</g>
</g>
<g>
	<g>
		<polygon points="228.432,159.016 227.416,158.512 221.08,173.232 260.688,191.28 267.312,176.72 		"/>
	</g>
</g>
<g>
	<g>
		<path d="M173.848,214.336c-11.48-25.256-27.8-47.456-48.512-65.984l-10.664,11.928c19.04,17.04,34.056,37.456,44.616,60.672
			l17.432,38.352l14.56-6.616L173.848,214.336z"/>
	</g>
</g>
<g>
	<g>
		<path d="M91.632,124.48C75.632,116.32,57.776,112,40,112c-22.056,0-40,17.944-40,40c0,17.648,14.352,32,32,32s32-14.352,32-32H48
			c0,8.824-7.176,16-16,16s-16-7.176-16-16c0-13.232,10.768-24,24-24c15.256,0,30.6,3.712,44.072,10.576
			c0.104,0.056,10.04,5.672,19.168,12.184l9.288-13.024C102.712,130.736,92.36,124.88,91.632,124.48z"/>
	</g>
</g>
<g>
	<g>
		<rect x="40" y="400" width="16" height="24"/>
	</g>
</g>
<g>
	<g>
		<rect x="14.551" y="410.555" transform="matrix(0.7071 -0.7071 0.7071 0.7071 -292.1868 139.7093)" width="16" height="24"/>
	</g>
</g>
<g>
	<g>
		<rect y="440" width="24" height="16"/>
	</g>
</g>
<g>
	<g>
		<rect x="10.504" y="465.445" transform="matrix(0.7071 -0.7071 0.7071 0.7071 -328.1846 154.5813)" width="24" height="16"/>
	</g>
</g>
<g>
	<g>
		<rect x="40" y="472" width="16" height="24"/>
	</g>
</g>
<g>
	<g>
		<rect x="65.451" y="461.448" transform="matrix(0.7071 -0.7071 0.7071 0.7071 -313.265 190.6074)" width="16" height="24"/>
	</g>
</g>
<g>
	<g>
		<rect x="72" y="440" width="24" height="16"/>
	</g>
</g>
<g>
	<g>
		<rect x="61.475" y="414.544" transform="matrix(0.7071 -0.7071 0.7071 0.7071 -277.2634 175.7151)" width="24" height="16"/>
	</g>
</g>
<g>
	<g>
		<rect x="440" width="16" height="24"/>
	</g>
</g>
<g>
	<g>
		<rect x="414.515" y="10.52" transform="matrix(0.7071 -0.7071 0.7071 0.7071 107.8278 305.3594)" width="16" height="24"/>
	</g>
</g>
<g>
	<g>
		<rect x="400" y="40" width="24" height="16"/>
	</g>
</g>
<g>
	<g>
		<rect x="410.551" y="65.469" transform="matrix(0.7071 -0.7071 0.7071 0.7071 71.812 320.3068)" width="24" height="16"/>
	</g>
</g>
<g>
	<g>
		<rect x="440" y="72" width="16" height="24"/>
	</g>
</g>
<g>
	<g>
		<rect x="465.44" y="61.467" transform="matrix(0.7071 -0.7071 0.7071 0.7071 86.718 356.2905)" width="16" height="24"/>
	</g>
</g>
<g>
	<g>
		<rect x="472" y="40" width="24" height="16"/>
	</g>
</g>
<g>
	<g>
		<rect x="461.451" y="14.544" transform="matrix(0.7071 -0.7071 0.7071 0.7071 122.7295 341.3836)" width="24" height="16"/>
	</g>
</g>
<g>
</g>
<g>
</g>
<g>
</g>
<g>
</g>
<g>
</g>
<g>
</g>
<g>
</g>
<g>
</g>
<g>
</g>
<g>
</g>
<g>
</g>
<g>
</g>
<g>
</g>
<g>
</g>
<g>
</g>
</svg>
